<svg width="95" height="95" viewBox="0 0 95 95" fill="none" xmlns="http://www.w3.org/2000/svg">
<path d="M43.1675 15.0294L43.1675 22.5441C43.1675 22.9708 43.3531 23.379 43.6778 23.6666L67.0845 43.9747L1.19455 43.5665C0.786345 43.5665 0.45236 43.9005 0.45236 44.3087L0.452361 49.8751C0.452361 50.2833 0.786345 50.6173 1.19455 50.6173L67.0845 51.0255L43.6778 71.3336C43.3531 71.6119 43.1675 72.0201 43.1675 72.4562L43.1675 79.9708C43.1675 80.6017 43.919 80.9449 44.3921 80.5274L79.878 49.7359C80.1991 49.4576 80.4566 49.1135 80.6331 48.7269C80.8096 48.3404 80.9009 47.9204 80.9009 47.4955C80.9009 47.0705 80.8096 46.6505 80.6331 46.264C80.4566 45.8774 80.1991 45.5333 79.878 45.255L44.3921 14.4728C43.9097 14.0553 43.1675 14.3985 43.1675 15.0294Z" fill="#222222"/>
</svg>
