<svg width="95" height="93" viewBox="0 0 95 93" fill="none" xmlns="http://www.w3.org/2000/svg">
<path d="M15.7641 7.25756L23.9976 15.491C24.4652 15.9586 25.1157 16.2026 25.7866 16.1619L73.6832 12.7669L1.04297 84.5126C0.595723 84.9598 0.595722 85.6917 1.04297 86.1389L7.14186 92.2378C7.58911 92.6851 8.32097 92.6851 8.76822 92.2378L81.4084 20.4921L78.0134 68.3887C77.9625 69.0494 78.2065 69.6999 78.6842 70.1777L86.9177 78.4112C87.6089 79.1024 88.8084 78.6551 88.8694 77.6793L94.0128 5.06193C94.0596 4.40515 93.9648 3.74598 93.7346 3.12907C93.5045 2.51216 93.1444 1.95192 92.6788 1.48633C92.2132 1.02074 91.653 0.660667 91.036 0.430508C90.4191 0.20035 89.76 0.105472 89.1032 0.152328L16.496 5.30591C15.51 5.37706 15.0729 6.56635 15.7641 7.25756Z" fill="#E4E3E3"/>
</svg>
