<svg width="123" height="104" viewBox="0 0 123 104" fill="none" xmlns="http://www.w3.org/2000/svg">
<g clip-path="url(#clip0_191_158)">
<g clip-path="url(#clip1_191_158)">
<path d="M33.7318 15.2678L41.9539 23.4899C42.4209 23.9569 43.0705 24.2005 43.7405 24.1599L91.5713 20.7695L19.0308 92.4167C18.5842 92.8633 18.5842 93.5942 19.0308 94.0408L25.1213 100.131C25.568 100.578 26.2988 100.578 26.7455 100.131L99.286 28.4841L95.8956 76.315C95.8448 76.9748 96.0884 77.6244 96.5655 78.1015L104.788 86.3237C105.478 87.014 106.676 86.5673 106.737 85.5928L111.873 13.0751C111.92 12.4193 111.825 11.761 111.595 11.1449C111.365 10.5289 111.006 9.96941 110.541 9.50446C110.076 9.0395 109.516 8.67993 108.9 8.45008C108.284 8.22024 107.626 8.1255 106.97 8.17229L34.4626 13.3188C33.478 13.3898 33.0415 14.5775 33.7318 15.2678Z" fill="#E4E3E3"/>
</g>
</g>
<defs>
<clipPath id="clip0_191_158">
<rect width="123" height="104" fill="white"/>
</clipPath>
<clipPath id="clip1_191_158">
<rect width="147" height="147" fill="white" transform="translate(74 150) rotate(-135)"/>
</clipPath>
</defs>
</svg>
