<svg width="81" height="67" viewBox="0 0 81 67" fill="none" xmlns="http://www.w3.org/2000/svg">
<g clip-path="url(#clip0_34_64)">
<path d="M43.1676 1.02928L43.1676 8.54393C43.1676 8.97069 43.3531 9.37889 43.6778 9.66649L67.0846 29.9746L1.19458 29.5664C0.786375 29.5664 0.452391 29.9004 0.452391 30.3086L0.452391 35.875C0.452391 36.2832 0.786376 36.6172 1.19458 36.6172L67.0846 37.0254L43.6778 57.3335C43.3531 57.6118 43.1676 58.02 43.1676 58.456L43.1676 65.9707C43.1676 66.6015 43.919 66.9448 44.3922 66.5273L79.878 35.7358C80.1991 35.4575 80.4566 35.1134 80.6331 34.7268C80.8096 34.3403 80.901 33.9203 80.901 33.4953C80.901 33.0704 80.8096 32.6504 80.6331 32.2639C80.4566 31.8773 80.1991 31.5332 79.878 31.2549L44.3922 0.472642C43.9097 0.0551619 43.1676 0.398424 43.1676 1.02928Z" fill="#222222"/>
</g>
<defs>
<clipPath id="clip0_34_64">
<rect width="67" height="81" fill="white" transform="translate(0 67) rotate(-90)"/>
</clipPath>
</defs>
</svg>
