<svg width="28" height="28" viewBox="0 0 28 28" fill="none" xmlns="http://www.w3.org/2000/svg">
<path d="M14 15.1667C15.933 15.1667 17.5 13.5997 17.5 11.6667C17.5 9.73366 15.933 8.16666 14 8.16666C12.067 8.16666 10.5 9.73366 10.5 11.6667C10.5 13.5997 12.067 15.1667 14 15.1667Z" stroke="#7E7D7D" stroke-width="2" stroke-linecap="round" stroke-linejoin="round"/>
<path d="M14.0001 2.33333C11.5247 2.33333 9.15076 3.31666 7.40042 5.067C5.65008 6.81734 4.66675 9.19131 4.66675 11.6667C4.66675 13.874 5.13575 15.3183 6.41675 16.9167L14.0001 25.6667L21.5834 16.9167C22.8644 15.3183 23.3334 13.874 23.3334 11.6667C23.3334 9.19131 22.3501 6.81734 20.5997 5.067C18.8494 3.31666 16.4754 2.33333 14.0001 2.33333V2.33333Z" stroke="#7E7D7D" stroke-width="2" stroke-linecap="round" stroke-linejoin="round"/>
</svg>
